<?xml version="1.0" encoding="utf-8"?>
<!-- Generator: Adobe Illustrator 24.2.3, SVG Export Plug-In . SVG Version: 6.00 Build 0)  -->
<svg version="1.1" id="Layer_1" xmlns="http://www.w3.org/2000/svg" xmlns:xlink="http://www.w3.org/1999/xlink" x="0px" y="0px"
	 viewBox="0 0 612 792" style="enable-background:new 0 0 612 792;" xml:space="preserve">
<style type="text/css">
	.st0{fill:#FFC400;}
</style>
<g id="Composite_Path_2_">
	<g>
		<path class="st0" d="M342.7,408.4c-1.5-3.4-5.5-4.9-8.9-3.4c-1.6,0.7-2.8,2-3.5,3.6l-23.2-8.8c0.4-1.8,0.3-3.7-0.5-5.6
			c-1.3-2.9-4-4.7-7-5.1l0.2-8.9c0.6-0.1,1.3-0.3,1.9-0.5c3.4-1.5,4.9-5.5,3.4-8.9c-1.5-3.4-5.5-4.9-8.9-3.4
			c-3.4,1.5-4.9,5.5-3.4,8.9c1,2.1,2.9,3.5,5,3.9l-0.2,8.9c-0.9,0.1-1.7,0.3-2.6,0.7c-4.4,2-6.4,7.2-4.4,11.6
			c0.1,0.3,0.3,0.6,0.4,0.8l-12.9,10.2c-1.9-1.9-4.9-2.5-7.5-1.3c-3.4,1.5-4.9,5.5-3.4,8.9c1.5,3.4,5.5,4.9,8.9,3.4
			c3.4-1.5,4.9-5.5,3.4-8.9c-0.1-0.2-0.2-0.3-0.2-0.5l12.9-10.2c2.5,2.6,6.4,3.5,9.9,1.9c1.9-0.9,3.4-2.4,4.3-4.1l23.4,8.8
			c-0.1,1.1,0.1,2.3,0.6,3.4c1.5,3.4,5.5,4.9,8.9,3.4C342.7,415.8,344.2,411.8,342.7,408.4z M301.3,404.1c-3.4,1.5-7.4,0-8.9-3.4
			c-1.5-3.4,0-7.4,3.4-8.9c3.4-1.5,7.4,0,8.9,3.4C306.2,398.5,304.7,402.5,301.3,404.1z"/>
	</g>
</g>
</svg>
